<svg xmlns="http://www.w3.org/2000/svg" viewBox="0 0 39 39"><path d="M1 1h7v7h-7zM14 1h1v2h-1zM17 1h2v1h-1v1h-1v1h-2v-1h1v-1h1zM22 1h4v1h-4zM27 1h1v1h2v6h-1v-1h-1v-1h1v-2h-1v-1h-1zM31 1h7v7h-7zM2 2v5h5v-5zM10 2h2v1h2v1h1v2h-1v-1h-1v-1h-1v1h-2v1h2v-1h1v2h-1v1h1v1h-1v3h1v1h-1v1h1v1h1v1h-1v1h1v-1h1v1h1v-2h1v-1h1v2h-1v2h1v1h-2v-1h-1v1h-1v-1h-2v-3h-2v-2h1v-4h-2v-6h1zM21 2h1v1h-1zM32 2v5h5v-5zM3 3h3v3h-3zM22 3h1v1h-1zM24 3h1v1h-1zM33 3h3v3h-3zM18 4h2v1h-1v2h-1v-1h-1v-1h1zM21 4h1v1h-1zM23 4h1v1h-1zM25 4h2v1h1v1h-2v-1h-1zM20 5h1v1h-1zM22 5h1v1h-1zM24 5h1v1h-1zM15 6h2v1h-1v1h-1zM23 6h1v3h-3v-2h1v1h1zM10 7v1h1v-1zM13 7h1v1h-1zM17 7h1v1h1v-1h1v2h-2v1h-1v1h2v1h-2v2h-1v-1h-1v1h-2v-1h1v-1h1v-2h-1v-1h3zM25 7h1v1h-1zM27 7h1v2h1v1h-2v2h-1v-1h-3v-1h3v-1h1zM1 9h1v1h-1zM3 9h5v1h-1v1h1v1h-2v-1h-2v3h-2v2h-1v-4h1v1h1v-2h-1v-1h1zM31 9h5v1h-1v1h1v-1h1v1h1v3h-1v1h-1v-1h-1v-1h2v-1h-2v1h-1v-1h-1v1h-1v-3h-1zM9 10h1v1h-1zM19 10h1v1h-1zM21 10h1v1h-1zM33 10v1h1v-1zM20 11h1v1h1v-1h1v2h-2v1h1v1h1v1h2v1h-3v-1h-1v-1h-1v1h-1v-2h1v-1h-1v-1h1zM28 11h1v1h-1zM30 11h1v2h1v1h-2v2h1v1h-2v-1h-2v-2h1v1h1v-1h-1v-1h2zM8 12h1v1h-1zM24 12h1v1h-1zM5 13h3v1h-3zM18 13h1v1h-1zM23 13h1v1h-1zM25 13h2v1h-2zM33 13h1v1h-1zM4 14h1v1h-1zM8 14h1v4h-3v-1h-4v-1h1v-1h1v1h2v-1h2zM15 14h1v1h-1zM24 14h1v1h-1zM32 14h1v1h-1zM31 15h1v1h-1zM34 15h1v1h-1zM37 15h1v1h-1zM7 16v1h1v-1zM10 16h1v1h-1zM32 16h2v2h-3v-1h1zM1 17h1v1h-1zM19 17h3v1h-3zM26 17h1v1h-1zM35 17h3v1h-1v1h1v2h-1v-1h-2v-1h1v-1h-1zM9 18h1v1h-1zM23 18h3v1h-2v1h2v1h-2v1h-1v-1h-1v-1h1zM27 18h1v1h-1zM29 18h1v1h-1zM34 18h1v1h-1zM1 19h2v1h-2zM5 19h3v1h-3zM10 19h3v1h2v1h-1v2h-1v1h-1v-1h-1v1h1v1h-1v2h-3v-1h1v-2h1v-1h-2v-1h-1v-1h2v1h1v-1h1v-1h-1zM15 19h1v1h-1zM21 19h1v1h-1zM26 19h1v1h-1zM28 19h1v3h-1v-1h-1v-1h1zM31 19h2v2h-1v-1h-1zM9 20h1v1h-1zM17 20h1v1h-1zM19 20h1v1h-1zM30 20h1v1h1v1h-2zM15 21h1v2h1v1h-2v1h-1v1h-2v-1h1v-1h1v-1h1zM18 21h1v1h4v1h-1v1h1v2h-1v-1h-1v-2h-2v1h1v1h-2v-2h-1v-1h1zM26 21h1v1h-1zM33 21h3v1h-1v3h-1v1h-1v-1h-1v1h-3v-1h1v-2h1v1h1v-2h1v1h1v-1h-1zM2 22h2v1h-1v1h-1zM5 22h1v1h-1zM24 22h1v1h-1zM27 22h1v1h-1zM29 22h1v1h-1zM7 23h1v1h-1zM26 23h1v1h-1zM28 23h1v2h-1zM36 23h2v2h-1v1h-2v-1h1zM1 24h1v1h-1zM3 24h2v1h3v1h-3v1h-1v-1h-1v1h-1v3h-1v-4h1v-1h1zM24 24h1v1h2v1h-2v1h-1zM16 25h2v1h-1v1h2v-1h1v1h1v1h2v-1h1v1h1v-1h1v2h1v1h-1v1h1v1h-1v1h1v1h-2v-3h-1v-1h1v-1h-1v1h-1v-1h-1v4h2v1h-5v-1h1v-1h1v-1h-1v1h-1v-2h1v-2h-3v2h-1v-1h-1v-1h1v-1h-1v-1h1zM21 26h1v1h-1zM27 26h1v1h-1zM32 26h1v1h-1zM3 27h1v1h1v1h-1v1h-1zM5 27h1v1h-1zM7 27h1v1h-1zM11 27h1v1h-1zM14 27h1v1h-1zM28 27h1v1h-1zM31 27h1v1h1v1h1v-2h1v2h3v1h-2v2h-1v1h1v2h-1v-1h-1v1h-1v-1h-1v1h-2v-1h-1v1h-2v-1h1v-1h1v-2h-2v-1h1v-1h2v-1h1zM36 27h2v1h-2zM6 28h1v1h-1zM12 28h1v1h-1zM7 29h1v1h-1zM9 29h1v2h-1zM14 29h1v1h-1zM18 29h1v1h-1zM11 30h2v1h1v1h-3zM15 30h1v1h-1zM17 30h1v3h-1v1h1v1h-2v1h-3v-2h-1v-1h4v-2h1zM30 30v3h3v-3zM1 31h7v7h-7zM23 31h1v1h-1zM31 31h1v1h-1zM37 31h1v1h-1zM2 32v5h5v-5zM9 32h2v3h-1v1h-1zM3 33h3v3h-3zM37 33h1v5h-3v-1h2v-1h-1v-1h1zM24 34h1v1h-1zM18 35h2v1h-2zM21 35h1v1h-1zM29 35h1v2h-1zM10 36h3v1h-3zM17 36h1v1h-1zM22 36h2v1h-2zM25 36h1v1h-1zM31 36h4v1h-1v1h-2v-1h-1zM9 37h1v1h-1zM13 37h3v1h-3zM18 37h1v1h-1zM21 37h1v1h-1zM24 37h1v1h-1zM26 37h1v1h-1zM28 37h1v1h-1z"/></svg>