<svg xmlns="http://www.w3.org/2000/svg" viewBox="0 0 39 39"><path d="M1 1h7v7h-7zM10 1h2v1h-1v1h-1zM14 1h1v2h1v1h-1v1h-1v1h1v1h-1v1h1v1h-1v1h-1v1h-1v1h3v1h-2v1h-1v-1h-1v-3h-1v-1h2v-1h1v-2h-1v-1h1v-1h-1v1h-1v1h-1v3h-1v-6h1v1h1v-1h3zM18 1h1v1h-1zM20 1h1v1h-1zM23 1h3v1h-2v3h-1v-1h-2v-2h1v1h1zM27 1h1v1h2v1h-1v1h-1v-1h-1zM31 1h7v7h-7zM2 2v5h5v-5zM19 2h1v2h-1zM32 2v5h5v-5zM3 3h3v3h-3zM17 3h1v1h-1zM25 3h1v1h1v1h1v1h-2v-1h-1zM33 3h3v3h-3zM16 4h1v1h-1zM18 4h1v1h-1zM19 5h3v1h-2v2h-1v-1h-1v-1h1zM24 5h1v1h-1zM29 5h1v1h-1zM22 6h1v1h-1zM25 6h1v3h-2v-1h1zM28 6h1v1h-1zM11 7h1v1h-1zM15 7h1v1h-1zM17 7h1v2h2v1h-1v2h-2v1h2v1h-3v-5h1zM21 7h1v1h-1zM23 7h1v1h-1zM27 7h1v1h-1zM29 7h1v3h-2v-1h1zM20 8h1v1h-1zM22 8h1v1h-1zM1 9h1v1h-1zM3 9h5v1h-1v1h-2v-1h-1v2h-1v1h1v2h-1v-1h-1v1h1v1h3v-1h-1v-1h1v-1h-1v-1h2v1h2v2h-1v-1h-1v1h1v1h-1v1h1v1h-2v-1h-4v-1h-1v-3h1v-3h1zM23 9h1v1h-1zM26 9h1v1h-1zM31 9h5v1h-5zM8 10h2v3h-1v-2h-1zM14 10h1v1h-1zM17 10v1h1v-1zM20 10h2v1h-2zM24 10h2v1h-2zM27 10h1v1h-1zM30 10h1v1h2v1h1v1h3v-1h-2v-1h1v-1h1v1h1v3h-1v1h-1v-1h-5v-1h-1v1h-2v-3h1v1h1zM7 11h1v1h-1zM26 11h1v1h-1zM22 12h2v1h-2zM24 13h1v2h-1zM26 13h1v1h-1zM10 14h2v1h-2zM15 14h1v1h1v1h1v1h-1v1h2v-2h1v2h1v1h-2v1h-1v-1h-2v1h-1v-2h1v-1h-1zM19 14h4v1h1v1h1v1h-3v1h-1v-3h-2zM27 14h1v1h1v1h-1v1h-1v-1h-1v-1h1zM30 14h1v1h-1zM13 15h1v1h-1zM18 15h1v1h-1zM32 15h3v1h-1v2h-1v-1h-1v1h-1v-2h1zM37 15h1v1h-1zM8 16h2v2h4v3h-4v-1h2v-1h-3v1h-2v1h1v1h-3v-2h1v-1h2v-1h1v-1h-1zM12 16h1v1h-1zM29 16h1v2h-2v-1h1zM25 17h2v1h-1v1h-2v1h-1v-2h2zM35 17h3v1h-1v1h1v2h-1v-1h-2v1h-1v-2h2v-1h-1zM1 18h1v2h-1zM3 18h1v1h-1zM5 18h1v1h-1zM30 18h1v1h1v1h-2v1h2v1h-3v-1h-2v-1h-1v-1h4zM4 19h1v1h-1zM21 19h1v1h1v1h-2zM17 20h1v1h-1zM32 20h1v1h-1zM1 21h1v1h1v1h-2zM3 21h1v1h-1zM9 21h1v1h-1zM14 21h2v1h-2zM18 21h1v1h4v1h-1v1h1v-1h1v1h1v1h2v-2h-1v-1h-1v-1h2v1h1v1h1v1h1v1h-1v1h-4v1h-2v-1h1v-1h-6v-1h-1v1h-1v1h1v1h1v-1h4v1h-2v1h-3v2h-2v-1h1v-2h-1v1h-1v2h-1v-3h1v-1h1v-1h-1v-1h-1v-1h2v1h1v-1h1v-1h1zM23 21h1v1h-1zM33 21h1v1h-1zM35 21h1v1h-1zM8 22h1v1h-1zM10 22h2v2h1v1h1v1h-1v1h-1v-2h-2v1h-1v-1h-1v-1h1v-1h1v1h1v-1h-1zM24 22h1v1h-1zM34 22h1v2h-1v2h-1v-1h-1v1h-1v-2h-1v-1h4zM36 22h1v1h-1zM3 23h1v4h1v-3h2v1h1v1h-1v1h-1v1h-1v1h-1v1h-1v-4h-1v4h-1v-5h2zM7 23h1v1h-1zM19 23v1h2v-1zM25 23h1v1h-1zM37 23h1v1h-1zM36 24h1v1h1v1h-3v-1h1zM17 25h1v1h-1zM30 26h1v1h-1zM32 26h1v1h-1zM7 27h1v1h-1zM9 27h2v1h-1v1h-1zM22 27h1v1h3v1h1v1h-2v-1h-1v1h-1v-1h-1v1h1v1h1v1h-1v1h-2v1h1v1h-2v-1h-1v-1h1v-1h1v-1h-1v-1h1v-2h1zM28 27h2v1h-1v1h1v-1h1v-1h1v2h2v1h1v1h-1v1h1v1h-1v2h-1v-1h-1v1h-1v-1h-1v1h-1v-1h-1v-1h-1v-1h2v-2h-1zM35 27h3v1h-3zM11 28h1v2h-1v1h-2v-1h1v-1h1zM34 28h1v1h-1zM6 29h2v1h-2zM18 29h2v1h-2zM35 29h2v2h-1v-1h-1zM17 30h1v3h-1v1h2v2h-1v-1h-2v-1h-1v-3h2zM24 30h1v1h-1zM27 30h1v1h-1zM30 30v3h3v-3zM1 31h7v7h-7zM11 31h1v2h-1zM13 31h1v1h-1zM19 31h1v1h-1zM25 31h1v1h-1zM31 31h1v1h-1zM35 31h1v1h-1zM37 31h1v2h-1v1h-2v-1h1v-1h1zM2 32v5h5v-5zM9 32h1v4h-1zM24 32h1v2h1v1h1v1h-1v1h1v1h-2v-1h-5v-1h3v-1h1v1h1v-1h-1v-1h-1v-1h1zM3 33h3v3h-3zM13 33h1v1h-1zM26 33h1v1h-1zM27 34h1v1h-1zM37 34h1v4h-3v-1h2v-1h-2v1h-1v1h-1v-2h1v-1h3zM11 35h3v2h-1v-1h-1v1h-1zM30 35h1v1h-1zM17 36h1v1h1v1h-2zM27 36h3v1h-3zM9 37h2v1h-2zM12 37h1v1h-1zM31 37h1v1h-1z"/></svg>