<svg xmlns="http://www.w3.org/2000/svg" viewBox="0 0 39 39"><path d="M1 1h7v7h-7zM10 1h3v1h2v-1h2v1h-1v1h1v3h-1v-2h-1v-1h-1v1h-1v-1h-1v-1h-1v1h-1zM18 1h1v1h-1zM22 1h4v1h-4zM27 1h1v1h2v6h-1v-1h-1v1h-1v-1h-1v-1h1v-1h1v1h1v-2h-1v-1h-1zM31 1h7v7h-7zM2 2v5h5v-5zM21 2h1v1h-1zM32 2v5h5v-5zM3 3h3v3h-3zM9 3h1v1h1v-1h1v2h-2v4h-1zM22 3h1v1h-1zM33 3h3v3h-3zM14 4h1v1h-1zM18 4h2v1h-1v2h-1v1h-1v-2h1zM21 4h1v1h-1zM23 4h1v1h-1zM25 4h2v1h-2zM13 5h1v1h-1zM20 5h1v1h-1zM22 5h1v1h-1zM24 5h1v1h-1zM12 6h1v1h-1zM11 7h1v1h-1zM13 7h1v1h-1zM15 7h1v1h-1zM19 7h1v2h-2v-1h1zM21 7h1v1h1v1h-2zM23 7h1v1h-1zM25 7h1v1h-1zM16 8h1v1h1v1h-1v1h2v-1h1v1h1v1h1v-1h1v2h-2v1h2v1h-1v1h-1v-1h-1v-1h-4v1h2v1h-1v2h1v1h-2v-3h-2v1h1v1h-1v1h-1v-1h-1v-3h2v-1h-2v-1h3v-1h1zM1 9h1v1h-1zM3 9h5v1h-1v1h-1v-1h-2v1h-2v-1h1zM10 9h1v1h-1zM23 9h1v1h-1zM26 9h3v1h-2v2h-1v-1h-2v-1h2zM31 9h5v1h1v1h1v3h-1v1h-1v-1h-3v-1h4v-1h-1v-1h-1v1h-3v-1h2v-1h-3zM8 10h2v1h1v-1h2v1h1v1h-2v1h-2v1h2v1h-4v-1h1v-1h-1v-1h1v-1h-1zM14 10h1v1h-1zM21 10h1v1h-1zM30 10h1v3h1v1h-2v1h2v1h2v2h-1v-1h-1v1h-1v-1h-1v1h-1v-2h-1v-1h1v-2h1v-1h-1v1h-1v-2h2zM5 11h1v1h-1zM7 11h1v1h-1zM3 12h1v1h-1zM6 12h1v1h1v1h-1v1h-1zM17 12v1h3v-1zM25 12h1v1h1v1h-2v1h-1v-1h-1v-1h2zM1 13h2v1h1v-1h1v2h-2v1h-1v-2h-1zM27 14h1v1h-1zM32 14h1v1h-1zM7 15h1v1h-1zM19 15h1v1h-1zM26 15h1v1h-1zM34 15h1v1h-1zM37 15h1v3h-1v1h1v2h-1v-1h-1v-2h-1v-1h1v-1h1zM1 16h1v1h-1zM3 16h1v1h-1zM5 16h2v1h1v-1h3v3h-2v-1h-3v1h3v1h2v1h1v1h-1v1h-1v-2h-1v2h1v1h-1v3h-1v-1h-1v1h-1v-1h-1v-2h1v1h2v-1h-1v-1h1v-1h-1v1h-1v-1h-1v1h-1v-1h-1v-2h1v-1h-1v-1h1v-1h1zM22 16h1v1h-1zM24 16h1v1h-1zM27 16h1v2h-2v-1h1zM19 17h3v1h-3zM1 18h1v1h1v1h-1v2h-1zM23 18h3v1h-2v3h-1v-1h-1v-1h1zM32 18h1v2h-2v-1h1zM34 18h1v1h-1zM14 19h2v1h-1v3h2v1h-1v1h2v1h-1v1h2v-1h1v1h1v1h2v-1h1v3h-1v-1h-1v4h2v1h-5v-1h1v-1h1v-1h-1v1h-1v-2h1v-2h-3v1h2v1h-3v-1h-2v-2h-2v1h1v1h-2v-1h-1v1h-1v-2h1v-2h1v1h1v-1h-1v-2h1v1h1v-1h1v-1h-1v-1h-1v-1h2zM19 19h1v2h-1zM21 19h1v1h-1zM26 19h1v1h-1zM28 19h2v1h1v1h1v1h-2v-1h-1v1h-1v-1h-1v-1h1zM7 20v1h1v-1zM17 20h1v1h-1zM34 20h1v1h-1zM18 21h1v1h4v1h1v1h1v1h3v1h-3v1h-1v-2h-1v1h-1v-1h-1v-2h-2v1h1v1h-2v-2h-1v-1h1zM26 21h1v1h-1zM33 21h1v1h-1zM35 21h1v1h-1zM2 22h1v2h-2v-1h1zM24 22h1v1h-1zM27 22h1v1h1v2h-1v-1h-1zM29 22h1v1h-1zM32 22h1v1h1v-1h1v3h-1v1h-1v-1h-1v1h-1v-1h-1v-2h1v1h1zM36 22h1v1h-1zM37 23h1v2h-1v1h-2v-1h1v-1h1zM2 25h1v1h1v1h-2v3h-1v-4h1zM13 25v1h2v2h1v-2h-1v-1zM29 25h1v1h-1zM21 26h1v1h-1zM30 26h1v1h-1zM32 26h1v1h-1zM7 27h1v1h-1zM28 27h2v1h-2zM31 27h1v1h1v1h1v-1h1v1h3v1h-2v2h-1v1h1v2h-1v-1h-1v1h-1v-1h-1v1h-2v-1h-1v1h-1v-1h-3v-3h-1v-1h1v-2h1v1h1v1h-1v3h3v-2h-1v1h-1v-2h1v-1h2v-1h1zM35 27h3v1h-3zM3 28h1v1h1v1h-2zM7 29h2v1h-2zM10 29h1v1h-1zM9 30h1v1h-1zM11 30h3v3h1v2h1v1h-1v1h-1v-1h-1v-2h-1v-1h1v-1h-1v1h-1v-1h-1v-1h1zM15 30h1v1h2v2h-1v-1h-2zM30 30v3h3v-3zM1 31h7v7h-7zM23 31h1v1h-1zM31 31h1v1h-1zM37 31h1v7h-3v-1h2v-1h-1v-1h1zM2 32v5h5v-5zM9 32h1v1h1v1h-1v2h-1zM3 33h3v3h-3zM16 33h1v1h1v1h-2zM24 34h1v1h-1zM18 35h2v3h-3v-2h1v1h1v-1h-1zM21 35h1v1h-1zM29 35h1v2h-2v-1h1zM10 36h3v1h-1v1h-1v-1h-1zM22 36h2v1h-2zM32 36h3v1h-1v1h-4v-1h2zM9 37h1v1h-1zM15 37h1v1h-1zM21 37h1v1h-1zM26 37h1v1h-1z"/></svg>